<svg xmlns="http://www.w3.org/2000/svg" viewBox="0 0 900 900" width="900" height="900">
  <defs>
    <linearGradient id="bg" x1="0%" y1="0%" x2="100%" y2="100%">
      <stop offset="0%" stop-color="#031514"/>
      <stop offset="100%" stop-color="#0f172a"/>
    </linearGradient>
    <linearGradient id="rise" x1="0%" y1="100%" x2="100%" y2="0%">
      <stop offset="0%" stop-color="#34d399"/>
      <stop offset="100%" stop-color="#facc15"/>
    </linearGradient>
  </defs>
  <rect width="900" height="900" fill="url(#bg)"/>
  <g fill="none" stroke="#1f3b3d" stroke-width="1.5" opacity="0.62">
    <path d="M100 760H800M100 620H800M100 480H800M100 340H800M100 200H800"/>
    <path d="M160 120V800M320 120V800M480 120V800M640 120V800"/>
  </g>
  <path d="M120 720L260 640L360 660L460 510L610 420L760 230" fill="none" stroke="url(#rise)" stroke-width="5"/>
  <g fill="#34d399">
    <circle cx="260" cy="640" r="9"/>
    <circle cx="460" cy="510" r="10"/>
    <circle cx="760" cy="230" r="11"/>
  </g>
</svg>
