<svg width="1600" height="1000" viewBox="0 0 1600 1000" fill="none" xmlns="http://www.w3.org/2000/svg">
  <rect width="1600" height="1000" fill="#05080B"/>
  <g opacity="0.2" stroke="#223038" stroke-width="1">
    <path d="M0 160H1600"/><path d="M0 320H1600"/><path d="M0 480H1600"/><path d="M0 640H1600"/><path d="M0 800H1600"/>
    <path d="M160 0V1000"/><path d="M480 0V1000"/><path d="M800 0V1000"/><path d="M1120 0V1000"/><path d="M1440 0V1000"/>
  </g>
  <g opacity="0.78" stroke-linecap="round">
    <path d="M176 746L394 588L610 628L790 446L1006 486L1228 314L1452 356" stroke="#C7D5DE" stroke-width="3"/>
    <path d="M208 820L408 676L626 716L806 534L1020 576L1242 404L1472 446" stroke="#6A8290" stroke-width="2" stroke-dasharray="10 14"/>
    <path d="M230 182L430 312L662 242L902 378L1128 236L1380 322" stroke="#A6BAC7" stroke-width="2.2"/>
    <path d="M244 146L468 226L704 166L948 262L1182 162L1454 244" stroke="#DCE6EC" stroke-width="1.8"/>
  </g>
  <g opacity="0.68">
    <circle cx="902" cy="378" r="96" stroke="#C7D5DE" stroke-width="1.3"/>
    <circle cx="902" cy="378" r="160" stroke="#59717D" stroke-width="1.1" stroke-dasharray="8 10"/>
    <path d="M902 218V538M742 378H1062" stroke="#C7D5DE" stroke-width="1.1"/>
  </g>
  <g opacity="0.5" fill="#E1EBF0">
    <circle cx="230" cy="182" r="6"/><circle cx="430" cy="312" r="6"/><circle cx="662" cy="242" r="6"/>
    <circle cx="902" cy="378" r="6"/><circle cx="1128" cy="236" r="6"/><circle cx="1380" cy="322" r="6"/>
  </g>
</svg>
