<svg width="1600" height="1000" viewBox="0 0 1600 1000" fill="none" xmlns="http://www.w3.org/2000/svg">
  <rect width="1600" height="1000" fill="#05080B"/>
  <g opacity="0.24" stroke="#25323B" stroke-width="1">
    <path d="M0 108H1600"/><path d="M0 252H1600"/><path d="M0 396H1600"/><path d="M0 540H1600"/><path d="M0 684H1600"/><path d="M0 828H1600"/>
    <path d="M208 0V1000"/><path d="M464 0V1000"/><path d="M720 0V1000"/><path d="M976 0V1000"/><path d="M1232 0V1000"/><path d="M1488 0V1000"/>
  </g>
  <g opacity="0.78">
    <path d="M156 792L346 622L556 662L728 478L950 420L1146 222L1442 154" stroke="#DCE6EC" stroke-width="3"/>
    <path d="M130 842L326 702L540 742L746 570L970 512L1158 310L1462 250" stroke="#738B99" stroke-width="2" stroke-dasharray="12 14"/>
    <path d="M212 278L448 234L684 290L916 232L1220 282L1468 236" stroke="#A6BAC7" stroke-width="2"/>
  </g>
  <g opacity="0.65">
    <circle cx="1146" cy="222" r="120" stroke="#C7D5DE" stroke-width="1.4"/>
    <circle cx="1146" cy="222" r="198" stroke="#607884" stroke-width="1.1" stroke-dasharray="8 12"/>
    <path d="M1146 16V430M950 222H1342" stroke="#C7D5DE" stroke-width="1.1"/>
  </g>
  <g opacity="0.52" stroke="#C7D5DE" stroke-width="1.3">
    <rect x="126" y="612" width="204" height="130"/>
    <rect x="854" y="594" width="230" height="118"/>
    <rect x="1214" y="130" width="228" height="132"/>
  </g>
</svg>
