<svg width="1600" height="900" viewBox="0 0 1600 900" fill="none" xmlns="http://www.w3.org/2000/svg">
  <rect width="1600" height="900" fill="#05080D"/>
  <rect x="42" y="42" width="1516" height="816" rx="20" stroke="#26313C" stroke-width="2"/>
  <circle cx="800" cy="450" r="290" stroke="#33404C" stroke-width="3"/>
  <circle cx="800" cy="450" r="214" stroke="#26313C" stroke-width="2"/>
  <circle cx="800" cy="450" r="138" stroke="#1A2430" stroke-width="2"/>
  <path d="M510 304L656 404L800 450L972 404L1092 278" stroke="#DCE6EE" stroke-width="4"/>
  <path d="M510 598L656 498L800 450L972 508L1128 642" stroke="#A2B2C0" stroke-width="3"/>
  <path d="M800 160V740" stroke="#18212B" stroke-width="2" stroke-dasharray="10 10"/>
  <path d="M420 450H1180" stroke="#18212B" stroke-width="2" stroke-dasharray="10 10"/>
  <circle cx="510" cy="304" r="16" fill="#E5EEF6"/>
  <circle cx="1092" cy="278" r="16" fill="#D3DDE6"/>
  <circle cx="1128" cy="642" r="16" fill="#B6C4D0"/>
  <rect x="188" y="152" width="360" height="132" rx="18" fill="#091018" stroke="#33404C" stroke-width="2"/>
  <text x="222" y="202" fill="#AAB8C5" font-family="Arial, sans-serif" font-size="24" letter-spacing="5">CONTAINMENT MESH</text>
  <text x="222" y="244" fill="#E5EEF6" font-family="Arial, sans-serif" font-size="46" font-weight="700">THREAT FLOW</text>
  <rect x="1080" y="614" width="300" height="120" rx="18" fill="#091018" stroke="#33404C" stroke-width="2"/>
  <text x="1114" y="664" fill="#AAB8C5" font-family="Arial, sans-serif" font-size="24" letter-spacing="5">REPAIR LANE</text>
  <text x="1114" y="704" fill="#E5EEF6" font-family="Arial, sans-serif" font-size="42" font-weight="700">TRACKED</text>
</svg>
